Coordinates
version=1
nRows=24
nColumns=22
inDegrees=yes

Units are S.I. units (second, meters, Newtons, ...)
If the header above contains a line with 'inDegrees', this indicates whether rotational values are in degrees (yes) or radians (no).

endheader
time	pelvis_tilt	pelvis_list	pelvis_rotation	pelvis_tx	pelvis_ty	pelvis_tz	hip_flexion_r	hip_adduction_r	hip_rotation_r	knee_angle_r	ankle_angle_r	subtalar_angle_r	hip_flexion_l	hip_adduction_l	hip_rotation_l	knee_angle_l	ankle_angle_l	subtalar_angle_l	lumbar_extension	lumbar_bending	lumbar_rotation
      1.77000000	      3.88739465	      0.51167423	    127.71602701	     -0.33854703	      0.94199201	      0.79280491	     -0.52014599	     16.03507226	     10.96563349	    -11.55096575	     10.92149515	     -9.55657001	     33.61206154	     -6.90324621	      8.61983009	    -44.44388008	      9.75020801	      5.97500808	     -7.41685534	      1.45690028	      9.63979210
      1.78000000	      3.97498613	      0.42725444	    126.93585709	     -0.34338026	      0.94106946	      0.78623131	     -1.09812717	     15.98147991	     11.74210171	    -11.54446107	     11.23494883	     -9.52907006	     33.55067380	     -6.64285964	      9.62532246	    -41.03018457	     10.00619787	      6.86104932	     -7.34717924	      1.55552298	      9.70551962
      1.79000000	      4.05070331	      0.28616217	    126.15040657	     -0.34812356	      0.94000151	      0.77960792	     -1.53403992	     15.89983289	     12.49753828	    -11.71970680	     11.64928269	     -9.56912791	     33.43529034	     -6.42256644	     10.59793976	    -37.54031394	     10.11281814	      7.42229311	     -7.24824569	      1.58900656	      9.79034285
      1.80000000	      4.14526101	      0.18603185	    125.43348232	     -0.35290716	      0.93886410	      0.77291382	     -1.96376571	     15.86966740	     13.19295016	    -11.92990673	     11.98250385	     -9.65948704	     33.24504828	     -6.29321766	     11.62199378	    -34.05879807	     10.37303531	      8.13197498	     -7.17577771	      1.65920765	      9.81372406
      1.81000000	      4.22668308	      0.04595885	    124.71571585	     -0.35760201	      0.93759890	      0.76615253	     -2.26820352	     15.83062598	     13.84838909	    -12.32158009	     12.40343875	     -9.77662993	     33.03559871	     -6.23298634	     12.51796251	    -30.63543164	     10.50990605	      8.56731504	     -7.08717558	      1.67380599	      9.84634757
      1.82000000	      4.32071593	     -0.06616975	    124.02590528	     -0.36230824	      0.93627224	      0.75928717	     -2.56710301	     15.83277953	     14.47818468	    -12.75487241	     12.76217526	     -9.95340281	     32.80510263	     -6.27527117	     13.29368987	    -27.37293858	     10.71615840	      8.97786706	     -7.01375261	      1.71094937	      9.86112914
      1.83000000	      4.40984505	     -0.19835246	    123.32812861	     -0.36693674	      0.93485487	      0.75233343	     -2.77644586	     15.84386972	     15.05830362	    -13.33138206	     13.15755091	    -10.11367236	     32.60660554	     -6.38784829	     13.81208497	    -24.34642868	     10.84524695	      9.19772712	     -6.93006452	      1.71447169	      9.90024425
      1.84000000	      4.49021906	     -0.32240593	    122.63911234	     -0.37157144	      0.93340765	      0.74527838	     -2.97397490	     15.86487901	     15.61362132	    -13.96180334	     13.52764455	    -10.28165368	     32.43790569	     -6.54278265	     14.06649454	    -21.64257727	     10.97068867	      9.31550342	     -6.85544466	      1.70893425	      9.93702990
      1.85000000	      4.56193385	     -0.46253081	    121.95198209	     -0.37619070	      0.93192104	      0.73814595	     -3.12541425	     15.88215261	     16.13210457	    -14.66620543	     13.89989709	    -10.41332788	     32.33916033	     -6.69954913	     14.04426249	    -19.33542887	     11.04578649	      9.35730163	     -6.76813093	      1.67931689	      9.96993568
      1.86000000	      4.60972638	     -0.59322354	    121.25302676	     -0.38082064	      0.93048059	      0.73090225	     -3.28537877	     15.88431185	     16.60649576	    -15.40605884	     14.22863766	    -10.53190944	     32.27206990	     -6.84016328	     13.76690899	    -17.46433255	     11.10832064	      9.33941601	     -6.69645312	      1.62823715	     10.03939395
      1.87000000	      4.64493136	     -0.73125908	    120.55523916	     -0.38547794	      0.92908357	      0.72355323	     -3.43700919	     15.86748539	     17.03106275	    -16.16575582	     14.52662323	    -10.61803529	     32.25635498	     -6.93819092	     13.32204026	    -16.05098725	     11.12281047	      9.30027673	     -6.61403528	      1.55806581	     10.12927159
      1.88000000	      4.65922492	     -0.86535003	    119.85567865	     -0.39015441	      0.92777320	      0.71607882	     -3.59475384	     15.83113434	     17.43736294	    -16.95068687	     14.75945707	    -10.67340396	     32.27091164	     -6.98453309	     12.79151165	    -15.10625588	     11.10314666	      9.23775217	     -6.53529832	      1.46660163	     10.22437502
      1.89000000	      4.66015643	     -0.99278492	    119.16448800	     -0.39485843	      0.92656737	      0.70847042	     -3.76223200	     15.78085971	     17.83419166	    -17.74758791	     14.92159108	    -10.69181964	     32.30743192	     -6.97902978	     12.28709156	    -14.61271962	     11.03077652	      9.15129638	     -6.45696647	      1.36083542	     10.31840171
      1.90000000	      4.66091733	     -1.11887298	    118.48985025	     -0.39960125	      0.92546985	      0.70069086	     -3.92962849	     15.72374682	     18.19922020	    -18.54944518	     15.01257144	    -10.66864926	     32.35177229	     -6.93143482	     11.90543685	    -14.51044284	     10.88226438	      9.05345800	     -6.35911490	      1.24725672	     10.41712759
      1.91000000	      4.66209295	     -1.24479119	    117.83088145	     -0.40439373	      0.92449522	      0.69272314	     -4.09673429	     15.65977470	     18.55230156	    -19.35788847	     15.02462321	    -10.60109265	     32.38933308	     -6.84552627	     11.68782399	    -14.74418637	     10.64526648	      8.91842149	     -6.23802522	      1.12832289	     10.51939866
      1.92000000	      4.68251653	     -1.36944178	    117.20107509	     -0.40923670	      0.92362520	      0.68456202	     -4.24160455	     15.61320583	     18.87746449	    -20.19408795	     14.97853613	    -10.42049139	     32.41834677	     -6.73413661	     11.68621039	    -15.24805475	     10.28743334	      8.58495166	     -6.08374376	      1.02166274	     10.59196021
      1.93000000	      4.67129891	     -1.50733353	    116.58824959	     -0.41412796	      0.92294711	      0.67612787	     -4.40621651	     15.52394708	     19.20419531	    -21.00599195	     14.76953299	    -10.28156772	     32.39227663	     -6.56522366	     11.85332984	    -15.92857697	      9.79720851	      8.36700506	     -5.89855254	      0.85919719	     10.67180987
      1.94000000	      4.68927330	     -1.64738138	    116.02910000	     -0.41910332	      0.92236315	      0.66755715	     -4.50681052	     15.46975451	     19.46101934	    -21.89205614	     14.51990463	    -10.00074451	     32.36479479	     -6.37003788	     12.22393966	    -16.74875819	      9.15539905	      7.77376195	     -5.67659183	      0.72699343	     10.67827231
      1.95000000	      4.67132262	     -1.79582922	    115.52045504	     -0.42415675	      0.92199912	      0.65875519	     -4.61063202	     15.38132433	     19.67703315	    -22.77539499	     14.10993451	     -9.70147225	     32.28532925	     -6.11054160	     12.71006102	    -17.62138839	      8.39648453	      7.21344406	     -5.43350955	      0.54089083	     10.63480344
      1.96000000	      4.63713700	     -1.96511442	    115.06764031	     -0.42927528	      0.92181406	      0.64978794	     -4.65439817	     15.28139866	     19.81289399	    -23.71463547	     13.57228783	     -9.32770954	     32.20189391	     -5.80436591	     13.24439983	    -18.52373661	      7.56085523	      6.58631712	     -5.15435434	      0.31971497	     10.52574665
      1.97000000	      4.57480908	     -2.14248837	    114.66683717	     -0.43444299	      0.92185039	      0.64066537	     -4.63909924	     15.16797935	     19.84963250	    -24.72982801	     12.86993372	     -8.81206739	     32.10871127	     -5.46494301	     13.73974491	    -19.43040632	      6.70477196	      5.91954726	     -4.86218777	      0.05680070	     10.36412302
      1.98000000	      4.48561501	     -2.34113451	    114.33416202	     -0.43966983	      0.92208575	      0.63143043	     -4.52032070	     15.04290471	     19.74304290	    -25.85517887	     12.00814436	     -8.16020692	     32.02781438	     -5.09170766	     14.16139045	    -20.32567184	      5.86897755	      5.32631217	     -4.54742061	     -0.24903690	     10.11083016
      1.99000000	      4.37379063	     -2.53470118	    114.05477651	     -0.44490811	      0.92254478	      0.62208986	     -4.29262230	     14.92363031	     19.46706394	    -27.12769365	     10.96108964	     -7.28011792	     31.92981962	     -4.72243479	     14.45512903	    -21.19083250	      5.07801402	      4.78247229	     -4.24253837	     -0.58360928	      9.77427292
      2.00000000	      4.24389757	     -2.71920261	    113.82253128	     -0.45017740	      0.92320906	      0.61268123	     -3.93722776	     14.80405555	     18.98092078	    -28.56226960	      9.70866861	     -6.13021725	     31.81275401	     -4.36432618	     14.61987681	    -22.03379920	      4.33903754	      4.31924413	     -3.95324698	     -0.93168482	      9.38566244
